<svg width="57" height="57" viewBox="0 0 57 57" fill="none" xmlns="http://www.w3.org/2000/svg">
<path d="M22.1847 0.561523C9.99842 0.561523 0.0820312 10.4779 0.0820312 22.6642C0.0820312 34.8506 9.99842 44.767 22.1847 44.767C26.5767 44.767 30.6638 43.4646 34.1081 41.2465L48.4058 55.5442C50.2448 57.3831 53.2269 57.3831 55.0647 55.5442C56.9036 53.7052 56.9036 50.7243 55.0647 48.8853L40.767 34.5876C42.9851 31.1433 44.2875 27.0562 44.2875 22.6642C44.2875 10.4779 34.3711 0.561523 22.1847 0.561523ZM22.1847 9.40261C29.4963 9.40261 35.4464 15.3527 35.4464 22.6642C35.4464 29.9758 29.4963 35.9259 22.1847 35.9259C14.8732 35.9259 8.92312 29.9758 8.92312 22.6642C8.92312 15.3527 14.8732 9.40261 22.1847 9.40261Z" fill="#49426E"/>
</svg>
