<svg width="64" height="69" viewBox="0 0 64 69" fill="none" xmlns="http://www.w3.org/2000/svg">
<path d="M58.6772 41.7461C59.3703 39.2751 59.7216 36.7388 59.7216 34.1901C59.7216 31.6414 59.3703 29.1051 58.6772 26.6341L62.1863 23.9766C63.4327 23.0317 63.784 21.3004 63.0038 19.9453L59.7122 14.2448C58.9321 12.8897 57.2505 12.3271 55.8114 12.9363L51.7335 14.6551C48.1156 10.9471 43.6367 8.35171 38.6698 7.08668L38.1227 2.71967C37.93 1.16868 36.6028 0 35.0394 0H28.4594C26.8959 0 25.5687 1.16868 25.376 2.72278L24.8259 7.08979C19.859 8.35171 15.3801 10.9471 11.7621 14.6551L7.6842 12.9363C6.242 12.324 4.56358 12.8866 3.78342 14.2448L0.491844 19.9453C-0.288312 21.3004 0.0629136 23.0317 1.3093 23.9766L4.81845 26.6341C4.12532 29.1051 3.77409 31.6414 3.77409 34.1901C3.77409 36.7388 4.12532 39.2751 4.81845 41.7461L1.3093 44.4036C0.0629136 45.3485 -0.288312 47.0798 0.491844 48.435L3.78342 54.1354C4.56358 55.4905 6.242 56.0531 7.6842 55.4439L11.7621 53.7251C15.3801 57.4332 19.859 60.0285 24.8259 61.2935L25.3729 65.6606C25.5656 67.2146 26.8928 68.3833 28.4562 68.3833H35.0363C36.5997 68.3833 37.9269 67.2146 38.1196 65.6606L38.6667 61.2935C43.6335 60.0316 48.1125 57.4363 51.7304 53.7251L55.8083 55.4439C57.2443 56.0469 58.9259 55.4937 59.7091 54.1354L63.0007 48.435C63.7808 47.0798 63.4327 45.3485 62.1832 44.4036L58.6772 41.7461ZM31.7478 46.6229C24.8912 46.6229 19.3151 41.0468 19.3151 34.1901C19.3151 27.3334 24.8912 21.7573 31.7478 21.7573C38.6045 21.7573 44.1806 27.3334 44.1806 34.1901C44.1806 41.0468 38.6045 46.6229 31.7478 46.6229Z" fill="#EEC291"/>
</svg>
