<svg width="54" height="45" viewBox="0 0 54 45" fill="none" xmlns="http://www.w3.org/2000/svg">
<path d="M48.9268 36.1588C51.368 36.1588 53.3473 38.1381 53.3473 40.5793C53.3473 43.0206 51.368 44.9999 48.9268 44.9999C47.5984 44.9999 6.0497 44.9999 4.72132 44.9999C2.28008 44.9999 0.300781 43.0206 0.300781 40.5793C0.300781 38.1381 2.28008 36.1588 4.72132 36.1588C6.0497 36.1588 47.5984 36.1588 48.9268 36.1588ZM48.9268 18.4766C51.368 18.4766 53.3473 20.4559 53.3473 22.8972C53.3473 25.3384 51.368 27.3177 48.9268 27.3177C47.5984 27.3177 6.0497 27.3177 4.72132 27.3177C2.28008 27.3177 0.300781 25.3384 0.300781 22.8972C0.300781 20.4559 2.28008 18.4766 4.72132 18.4766C6.0497 18.4766 47.5984 18.4766 48.9268 18.4766ZM48.9268 0.794434C51.368 0.794434 53.3473 2.77373 53.3473 5.21498C53.3473 7.65622 51.368 9.63552 48.9268 9.63552C47.5984 9.63552 6.0497 9.63552 4.72132 9.63552C2.28008 9.63552 0.300781 7.65622 0.300781 5.21498C0.300781 2.77373 2.28008 0.794434 4.72132 0.794434C6.0497 0.794434 47.5984 0.794434 48.9268 0.794434Z" fill="#EEC291"/>
</svg>
