<svg width="593" height="225" viewBox="0 0 593 225" fill="none" xmlns="http://www.w3.org/2000/svg">
<path d="M33.2466 32.5461C46.7786 25.8471 74.8363 23.3908 87.1737 23C127.2 23 151.819 32.5461 162.705 44.4369C173.591 56.3276 179.787 97.1916 178.113 114.442C176.438 131.692 172.921 165.689 156.676 176.073C107.606 202.869 44.1324 186.456 33.2466 182.269C22.3608 178.082 11.3073 172.89 3.93839 145.759C-3.43053 118.628 0.923833 77.262 5.78062 62.6917C10.6374 48.1213 16.3316 40.9199 33.2466 32.5461Z" fill="#F4C08E"/>
<path d="M54.0967 65.9512C62.5833 62.2533 80.1797 60.8974 87.9171 60.6816C113.02 60.6816 128.46 65.9512 135.287 72.515C142.114 79.0788 146 101.636 144.95 111.158C143.899 120.68 141.694 139.447 131.505 145.179C128.751 146.503 125.924 147.636 123.055 148.6C123.055 160.497 123.85 164.894 121.673 165.354C116.681 166.408 101.074 152.899 97.5566 153.128C76.4265 154.506 58.5974 150.123 54.0967 148.6C47.2697 146.288 40.3375 143.423 35.7161 128.446C31.0946 113.469 33.8255 90.6348 36.8714 82.5918C39.9173 74.5488 43.4884 70.5736 54.0967 65.9512Z" fill="#49426E"/>
<circle cx="64.2278" cy="107.073" r="6.19659" fill="#E2D3F4"/>
<circle cx="89.3489" cy="107.073" r="6.19659" fill="#E2D3F4"/>
<circle cx="113.466" cy="107.073" r="6.19659" fill="#E2D3F4"/>
<path d="M209.95 112.2C209.95 101.8 212.2 92.55 216.7 84.45C221.2 76.25 227.45 69.9 235.45 65.4C243.55 60.8 252.7 58.5 262.9 58.5C275.4 58.5 286.1 61.8 295 68.4C303.9 75 309.85 84 312.85 95.4H284.65C282.55 91 279.55 87.65 275.65 85.35C271.85 83.05 267.5 81.9 262.6 81.9C254.7 81.9 248.3 84.65 243.4 90.15C238.5 95.65 236.05 103 236.05 112.2C236.05 121.4 238.5 128.75 243.4 134.25C248.3 139.75 254.7 142.5 262.6 142.5C267.5 142.5 271.85 141.35 275.65 139.05C279.55 136.75 282.55 133.4 284.65 129H312.85C309.85 140.4 303.9 149.4 295 156C286.1 162.5 275.4 165.75 262.9 165.75C252.7 165.75 243.55 163.5 235.45 159C227.45 154.4 221.2 148.05 216.7 139.95C212.2 131.85 209.95 122.6 209.95 112.2ZM383.008 80.4C392.608 80.4 400.308 83.6 406.108 90C411.908 96.3 414.808 105 414.808 116.1V165H389.308V119.55C389.308 113.95 387.858 109.6 384.958 106.5C382.058 103.4 378.158 101.85 373.258 101.85C368.358 101.85 364.458 103.4 361.558 106.5C358.658 109.6 357.208 113.95 357.208 119.55V165H331.558V54H357.208V92.55C359.808 88.85 363.358 85.9 367.858 83.7C372.358 81.5 377.408 80.4 383.008 80.4ZM430.532 123C430.532 114.4 432.132 106.85 435.332 100.35C438.632 93.85 443.082 88.85 448.682 85.35C454.282 81.85 460.532 80.1 467.432 80.1C473.332 80.1 478.482 81.3 482.882 83.7C487.382 86.1 490.832 89.25 493.232 93.15V81.3H518.882V165H493.232V153.15C490.732 157.05 487.232 160.2 482.732 162.6C478.332 165 473.182 166.2 467.282 166.2C460.482 166.2 454.282 164.45 448.682 160.95C443.082 157.35 438.632 152.3 435.332 145.8C432.132 139.2 430.532 131.6 430.532 123ZM493.232 123.15C493.232 116.75 491.432 111.7 487.832 108C484.332 104.3 480.032 102.45 474.932 102.45C469.832 102.45 465.482 104.3 461.882 108C458.382 111.6 456.632 116.6 456.632 123C456.632 129.4 458.382 134.5 461.882 138.3C465.482 142 469.832 143.85 474.932 143.85C480.032 143.85 484.332 142 487.832 138.3C491.432 134.6 493.232 129.55 493.232 123.15ZM587.089 143.25V165H574.039C564.739 165 557.489 162.75 552.289 158.25C547.089 153.65 544.489 146.2 544.489 135.9V102.6H534.289V81.3H544.489V60.9H570.139V81.3H586.939V102.6H570.139V136.2C570.139 138.7 570.739 140.5 571.939 141.6C573.139 142.7 575.139 143.25 577.939 143.25H587.089Z" fill="#E2D3F4"/>
</svg>
